<svg class="icon--root icon--cart" width="21" height="20" viewBox="0 0 21 20" xmlns="http://www.w3.org/2000/svg">
      <path d="M16.731 19.393a1.4 1.4 0 1 1 0-2.8 1.4 1.4 0 0 1 0 2.8Zm-9.74 0a1.4 1.4 0 1 1 0-2.8 1.4 1.4 0 0 1 0 2.8ZM2.534 1.9H1A.9.9 0 0 1 1 .1h2.277a.9.9 0 0 1 .883.73l.469 2.422h15.14a.9.9 0 0 1 .876 1.105l-2.203 9.445a.9.9 0 0 1-.876.695H5.712a.9.9 0 0 1-.884-.729L2.534 1.9Zm16.1 3.152H4.977l1.477 7.645h10.397l1.783-7.645Z" fill="#f8a15d" fill-rule="evenodd"></path>
    </svg>